<svg xmlns="http://www.w3.org/2000/svg" viewBox="0 0 342.41 181.36"><defs><style>.cls-1{fill:#416db5;}.cls-2{fill:#fff;}.cls-3{font-size:10px;fill:#231f20;font-family:Montserrat-Light, Montserrat;font-weight:300;}.cls-4{letter-spacing:-0.01em;}.cls-5{letter-spacing:0em;}.cls-6{fill:none;stroke:#231f20;stroke-miterlimit:10;stroke-width:0.5px;}</style></defs><title>Asset 10</title><g id="Layer_2" data-name="Layer 2"><g id="Layer_1-2" data-name="Layer 1"><g id="Layer_7" data-name="Layer 7"><path class="cls-1" d="M186.5,17.72A17.5,17.5,0,1,1,169,.22a17.49,17.49,0,0,1,17.5,17.5"/><rect class="cls-2" x="157.42" y="6.14" width="0.8" height="10.29"/><rect class="cls-2" x="166.91" y="6.14" width="0.8" height="10.29"/><rect class="cls-2" x="162.17" y="6.14" width="0.8" height="10.29" transform="translate(151.28 173.85) rotate(-90)"/><rect class="cls-2" x="157.42" y="19.01" width="0.8" height="10.29"/><rect class="cls-2" x="162.17" y="14.26" width="0.8" height="10.29" transform="translate(143.16 181.98) rotate(-90)"/><polygon class="cls-2" points="167.71 19.01 167.71 19.81 157.42 24.56 157.42 23.76 167.71 19.01"/><polygon class="cls-2" points="167.71 28.5 167.71 29.3 157.42 24.56 157.42 23.76 167.71 28.5"/><rect class="cls-2" x="170.29" y="24.16" width="0.8" height="5.15"/><polygon class="cls-2" points="180.58 29.3 179.78 28.9 179.78 19.01 180.58 19.01 180.58 29.3"/><polygon class="cls-2" points="180.58 28.5 180.58 29.3 170.29 24.56 170.29 23.76 180.58 28.5"/><rect class="cls-2" x="175.03" y="6.14" width="0.8" height="10.29" transform="translate(164.15 186.72) rotate(-90)"/><rect class="cls-2" x="175.03" y="1.39" width="0.8" height="10.29" transform="translate(168.89 181.98) rotate(-90)"/><rect class="cls-2" x="175.03" y="10.89" width="0.8" height="10.29" transform="translate(159.4 191.47) rotate(-90)"/><text class="cls-3" transform="translate(129.43 51.63)">HERN <tspan class="cls-4" x="32.74" y="0">W</tspan><tspan class="cls-5" x="43.57" y="0">EBSITE</tspan></text></g><g id="Layer_6" data-name="Layer 6"><rect class="cls-1" x="332.96" y="65.35" width="0.68" height="8.71" transform="translate(403 -263.59) rotate(90)"/><rect class="cls-1" x="332.96" y="74.06" width="0.68" height="8.71" transform="translate(411.71 -254.88) rotate(90)"/><rect class="cls-1" x="332.96" y="69.71" width="0.68" height="8.71"/><rect class="cls-1" x="332.96" y="87.32" width="0.68" height="8.71" transform="translate(424.97 -241.62) rotate(90)"/><rect class="cls-1" x="336.97" y="91.67" width="0.68" height="8.71"/><polygon class="cls-1" points="337.65 100.39 336.98 100.39 332.96 91.67 333.64 91.67 337.65 100.39"/><polygon class="cls-1" points="329.62 100.39 328.94 100.39 332.96 91.67 333.64 91.67 329.62 100.39"/><rect class="cls-1" x="330.78" y="100.82" width="0.68" height="4.35" transform="translate(434.12 -228.12) rotate(90)"/><polygon class="cls-1" points="328.94 111.37 329.29 110.69 337.65 110.69 337.65 111.37 328.94 111.37"/><polygon class="cls-1" points="329.62 111.37 328.94 111.37 332.96 102.66 333.64 102.66 329.62 111.37"/><rect class="cls-1" x="332.96" y="80.69" width="0.68" height="8.71"/><rect class="cls-1" x="336.97" y="80.69" width="0.68" height="8.71"/><rect class="cls-1" x="328.94" y="80.69" width="0.68" height="8.71"/><rect class="cls-1" x="4.36" y="106.67" width="0.68" height="8.71" transform="translate(-106.33 115.73) rotate(-90)"/><rect class="cls-1" x="4.36" y="97.97" width="0.68" height="8.71" transform="translate(-97.62 107.02) rotate(-90)"/><rect class="cls-1" x="4.36" y="102.32" width="0.68" height="8.71" transform="translate(9.41 213.35) rotate(-180)"/><rect class="cls-1" x="4.36" y="84.71" width="0.68" height="8.71" transform="translate(-84.36 93.76) rotate(-90)"/><rect class="cls-1" x="0.35" y="80.35" width="0.68" height="8.71" transform="translate(1.37 169.41) rotate(-180)"/><polygon class="cls-1" points="0.35 80.35 1.02 80.35 5.04 89.06 4.36 89.06 0.35 80.35"/><polygon class="cls-1" points="8.38 80.35 9.06 80.35 5.04 89.06 4.36 89.06 8.38 80.35"/><rect class="cls-1" x="6.54" y="75.56" width="0.68" height="4.35" transform="translate(-70.86 84.62) rotate(-90)"/><polygon class="cls-1" points="9.06 69.37 8.71 70.05 0.35 70.05 0.35 69.37 9.06 69.37"/><polygon class="cls-1" points="8.38 69.37 9.06 69.37 5.04 78.08 4.36 78.08 8.38 69.37"/><rect class="cls-1" x="4.36" y="91.34" width="0.68" height="8.71" transform="translate(9.41 191.38) rotate(-180)"/><rect class="cls-1" x="0.35" y="91.34" width="0.68" height="8.71" transform="translate(1.37 191.38) rotate(-180)"/><rect class="cls-1" x="8.38" y="91.34" width="0.68" height="8.71" transform="translate(17.44 191.38) rotate(-180)"/></g><g id="Layer_4" data-name="Layer 4"><g id="line"><line class="cls-6" x1="0.12" y1="0.22" x2="337.88" y2="181.14"/><line class="cls-6" x1="169" y1="90.37" x2="0.12" y2="181.14"/><line class="cls-6" x1="342.3" y1="0.22" x2="191.86" y2="78.08"/></g></g></g></g></svg>