<svg xmlns="http://www.w3.org/2000/svg" viewBox="0 0 128.06 152.65"><defs><style>.cls-1,.cls-3{fill:#416db5;}.cls-2{fill:#fff;}.cls-3{font-size:18.95px;font-family:Realist-Medium, Realist;font-weight:500;letter-spacing:0.08em;}.cls-4,.cls-7{letter-spacing:0.09em;}.cls-5{letter-spacing:0.05em;}.cls-6,.cls-9{letter-spacing:0.09em;}.cls-7{fill:#000;}.cls-8,.cls-9{fill:#606161;}.cls-8{letter-spacing:0.09em;}</style></defs><title>Asset 1</title><g id="Layer_2" data-name="Layer 2"><g id="peach_text_Logo" data-name="peach text Logo"><rect class="cls-1" x="2.16" width="123.75" height="123.75"/><rect class="cls-2" x="13.41" y="11.25" width="3.5" height="45"/><rect class="cls-2" x="54.91" y="11.25" width="3.5" height="45"/><rect class="cls-2" x="34.16" y="11.25" width="3.5" height="45" transform="translate(2.16 69.66) rotate(-90)"/><rect class="cls-2" x="13.41" y="67.5" width="3.5" height="45"/><rect class="cls-2" x="34.16" y="46.75" width="3.5" height="45" transform="translate(-33.34 105.16) rotate(-90)"/><polygon class="cls-2" points="58.41 67.5 58.41 71 13.41 91.75 13.41 88.25 58.41 67.5"/><polygon class="cls-2" points="58.41 109 58.41 112.5 13.41 91.75 13.41 88.25 58.41 109"/><rect class="cls-2" x="69.66" y="90" width="3.5" height="22.5"/><polygon class="cls-2" points="114.66 112.5 111.16 110.72 111.16 67.5 114.66 67.5 114.66 112.5"/><polygon class="cls-2" points="114.66 109 114.66 112.5 69.66 91.75 69.66 88.25 114.66 109"/><rect class="cls-2" x="90.41" y="11.25" width="3.5" height="45" transform="translate(58.41 125.91) rotate(-90)"/><rect class="cls-2" x="90.41" y="-9.5" width="3.5" height="45" transform="translate(79.16 105.16) rotate(-90)"/><rect class="cls-2" x="90.41" y="32" width="3.5" height="45" transform="translate(37.66 146.66) rotate(-90)"/><text class="cls-3" transform="translate(0 148.1) scale(0.99 1)">HY<tspan class="cls-4" x="28.66" y="0">E</tspan><tspan class="cls-5" x="41.11" y="0">R</tspan><tspan x="54.3" y="0">Y</tspan><tspan class="cls-6" x="67.73" y="0">N</tspan><tspan class="cls-7" x="83.08" y="0"> </tspan><tspan class="cls-8" x="89.73" y="0">K</tspan><tspan class="cls-9" x="103.97" y="0">IM</tspan></text></g></g></svg>