<svg xmlns="http://www.w3.org/2000/svg" width="201" height="201" viewBox="0 0 201 201">
  <path fill="#000000" d="M199.590255,122.515844 L199.590255,196.511231 L156.811601,196.511231 L156.811601,127.471609 C156.811601,110.128293 150.62413,98.2921583 135.139675,98.2921583 C123.319258,98.2921583 116.284919,106.268846 113.190255,113.984949 C112.061717,116.743425 111.77123,120.582863 111.77123,124.444172 L111.77123,196.511231 L68.9781903,196.511231 C68.9781903,196.511231 69.5545244,79.5807721 68.9781903,67.4659045 L111.767053,67.4659045 L111.767053,85.757563 C111.680278,85.8943701 111.567517,86.0418797 111.485847,86.1744988 L111.767053,86.1744988 L111.767053,85.757563 C117.451972,76.9772505 127.60464,64.4342793 150.329466,64.4342793 C178.483991,64.433814 199.590255,82.8781008 199.590255,122.515844 Z M24.2148492,5.25965416 C9.57540603,5.25965416 0,14.8887287 0,27.5512897 C0,39.93791 9.29837587,49.8592118 23.6468677,49.8592118 L23.9327146,49.8592118 C38.8556845,49.8592118 48.1364269,39.9397714 48.1364269,27.5512897 C47.8552204,14.8887287 38.8556845,5.25965416 24.2148492,5.25965416 Z M2.54153132,196.511231 L45.3183295,196.511231 L45.3183295,67.4659045 L2.54153132,67.4659045 L2.54153132,196.511231 Z"/>
</svg>
